<?xml version="1.0" standalone="no"?>
<!DOCTYPE svg PUBLIC "-//W3C//DTD SVG 20010904//EN"
 "http://www.w3.org/TR/2001/REC-SVG-20010904/DTD/svg10.dtd">
<svg version="1.0" xmlns="http://www.w3.org/2000/svg"
 width="318.000000pt" height="307.000000pt" viewBox="0 0 318.000000 307.000000"
 preserveAspectRatio="xMidYMid meet">

<g transform="translate(0.000000,307.000000) scale(0.100000,-0.100000)"
fill="#000000" stroke="none">
<path d="M2345 2745 c-170 -57 -544 -180 -830 -273 -373 -122 -526 -177 -544
-194 -34 -32 -77 -129 -97 -218 -14 -65 -17 -156 -21 -657 -3 -321 -7 -583 -9
-583 -3 0 -19 8 -37 17 -24 13 -57 17 -132 18 -93 0 -105 -2 -167 -33 -160
-78 -248 -263 -204 -426 41 -151 154 -257 306 -286 161 -31 327 55 402 208
l33 67 3 680 3 681 802 262 c441 145 805 263 810 262 4 0 7 -207 7 -459 l0
-460 -37 15 c-165 70 -378 1 -467 -150 -144 -245 15 -554 294 -573 198 -14
363 110 400 302 8 43 10 274 7 825 -3 665 -5 774 -20 833 -35 146 -103 248
-165 246 -15 0 -166 -47 -337 -104z m325 -183 l0 -208 -72 -23 c-40 -13 -79
-26 -85 -28 -10 -4 -13 41 -13 204 l0 209 78 26 c42 14 80 27 85 27 4 1 7 -93
7 -207z m-202 -69 l-3 -206 -82 -28 -83 -28 0 79 0 78 30 7 29 6 3 136 3 136
40 13 c22 6 46 12 53 13 10 1 12 -43 10 -206z m-259 -66 l1 -69 32 7 31 7 -6
-53 c-4 -30 -7 -64 -7 -76 0 -18 -13 -26 -78 -47 -42 -14 -80 -26 -85 -26 -4
0 -7 33 -7 74 0 70 1 74 25 80 l25 6 0 134 0 134 28 10 27 9 6 -61 c4 -34 7
-92 8 -129z m-209 -7 l0 -129 30 6 30 6 0 -75 0 -74 -83 -27 c-46 -15 -86 -27
-90 -27 -4 0 -7 33 -7 74 0 73 0 74 30 85 l30 10 0 131 c0 126 1 131 23 140
12 5 25 9 30 9 4 1 7 -57 7 -129z m-210 -70 c0 -71 2 -130 4 -130 3 0 16 4 31
10 l26 10 -3 -77 -3 -76 -67 -23 c-36 -12 -76 -25 -87 -29 -21 -6 -21 -5 -21
203 l0 209 53 16 c28 8 55 16 60 16 4 1 7 -57 7 -129z m-152 -127 l-3 -206
-82 -28 -83 -28 0 75 c0 74 0 75 30 85 l30 11 0 133 0 133 43 15 c72 26 68 39
65 -190z m-228 -128 l30 7 0 -75 0 -75 -90 -30 -90 -31 0 79 0 78 30 7 30 7 0
133 0 133 28 10 27 9 3 -129 3 -129 29 6z m-210 -70 l30 7 0 -75 0 -75 -78
-26 c-42 -14 -83 -26 -90 -26 -10 0 -12 45 -10 207 l3 207 55 17 55 16 3 -129
3 -129 29 6z m1357 -836 c92 -34 137 -143 98 -237 -31 -74 -90 -114 -165 -114
-56 0 -97 19 -138 67 -38 42 -46 70 -40 135 11 113 137 190 245 149z m-1812
-538 c45 -20 92 -70 101 -107 13 -52 -1 -131 -31 -169 -32 -42 -94 -74 -144
-75 -84 0 -167 74 -178 159 -11 80 53 181 125 197 15 3 32 7 37 9 23 8 53 3
90 -14z"/>
</g>
</svg>
